/* XPM */
static char *result[] = {
/* columns rows colors chars-per-pixel */
"64 64 5 1 ",
"  c #A81919",
". c #B71C1C",
"X c #C62828",
"o c #EF9A9A",
"O c None",
/* pixels */
"OOOOOOOOOOOOOOOOOOOOOOOOOOOOOOOOOOOOOOOOOOOOOOOOOOOOOOOOOOOOOOOO",
"OOOOOOOOOOOOOOOOOOOOOOOOOOOOOOOOOOOOOOOOOOOOOOOOOOOOOOOOOOOOOOOO",
"OOOOOOOOOOOOOOOOOOOOOOOOOOOOOOOOOOOOOOOOOOOOOOOOOOOOOOOOOOOOOOOO",
"OOOOOOOOOOOOOOOOOOOOOOOOOOOOOOOOOOOOOOOOOOOOOOOOOOOOOOOOOOOOOOOO",
"OOOOOOOOOOOOOOOOOOOOOOOOOOOOOOOOOOOOOOOOOOOOOOOOOOOOOOOOOOOOOOOO",
"OOOOOOOOOOOOOOOOOOOOOOOOOOOOOOOOOOOOOOOOOOOOOOOOOOOOOOOOOOOOOOOO",
"OOOOOOOOOOooooooooooooooooooOOOOOOooooooooooooooooooOOOOOOOOOOOO",
"OOOOOOOOOOooooooooooooooooooOOOOOOooooooooooooooooooOOOOOOOOOOOO",
"OOOOOOOOOOooooooooooooooooooOOOOOOooooooooooooooooooOOOOOOOOOOOO",
"OOOOOOOOOOooooooooooooooooooOOOOOOooooooooooooooooooOOOOOOOOOOOO",
"OOOOOOOOOOooooooooooooooooooOOOOOOooooooooooooooooooOOOOOOOOOOOO",
"OOOOOOOOOOooooooooooooooooooOOOOOOooooooooooooooooooOOOOOOOOOOOO",
"OOOOooooooXXXXXXXXXXXXXXXXXXoooooo..................ooooooOOOOOO",
"OOOOooooooXXXXXXXXXXXXXXXXXXoooooo..................ooooooOOOOOO",
"OOOOooooooXXXXXXXXXXXXXXXXXXoooooo..................ooooooOOOOOO",
"OOOOooooooXXXXXXXXXXXXXXXXXXoooooo..................ooooooOOOOOO",
"OOOOooooooXXXXXXXXXXXXXXXXXXoooooo..................ooooooOOOOOO",
"OOOOooooooXXXXXXXXXXXXXXXXXXoooooo..................ooooooOOOOOO",
"OOOOooooooXXXXXX....................................ooooooOOOOOO",
"OOOOooooooXXXXXX....................................ooooooOOOOOO",
"OOOOooooooXXXXXX....................................ooooooOOOOOO",
"OOOOooooooXXXXXX....................................ooooooOOOOOO",
"OOOOooooooXXXXXX....................................ooooooOOOOOO",
"OOOOooooooXXXXXX....................................ooooooOOOOOO",
"OOOOooooooXXXXXX..............................      ooooooOOOOOO",
"OOOOooooooXXXXXX..............................      ooooooOOOOOO",
"OOOOooooooXXXXXX..............................      ooooooOOOOOO",
"OOOOooooooXXXXXX..............................      ooooooOOOOOO",
"OOOOooooooXXXXXX..............................      ooooooOOOOOO",
"OOOOooooooXXXXXX..............................      ooooooOOOOOO",
"OOOOOOOOOOooooooXXXXXX..................      ooooooOOOOOOOOOOOO",
"OOOOOOOOOOooooooXXXXXX..................      ooooooOOOOOOOOOOOO",
"OOOOOOOOOOooooooXXXXXX..................      ooooooOOOOOOOOOOOO",
"OOOOOOOOOOooooooXXXXXX..................      ooooooOOOOOOOOOOOO",
"OOOOOOOOOOooooooXXXXXX..................      ooooooOOOOOOOOOOOO",
"OOOOOOOOOOooooooXXXXXX..................      ooooooOOOOOOOOOOOO",
"OOOOOOOOOOOOOOOOooooooXXXXXX......      ooooooOOOOOOOOOOOOOOOOOO",
"OOOOOOOOOOOOOOOOooooooXXXXXX......      ooooooOOOOOOOOOOOOOOOOOO",
"OOOOOOOOOOOOOOOOooooooXXXXXX......      ooooooOOOOOOOOOOOOOOOOOO",
"OOOOOOOOOOOOOOOOooooooXXXXXX......      ooooooOOOOOOOOOOOOOOOOOO",
"OOOOOOOOOOOOOOOOooooooXXXXXX......      ooooooOOOOOOOOOOOOOOOOOO",
"OOOOOOOOOOOOOOOOooooooXXXXXX......      ooooooOOOOOOOOOOOOOOOOOO",
"OOOOOOOOOOOOOOOOOOOOOOooooooXXXX  ooooooOOOOOOOOOOOOOOOOOOOOOOOO",
"OOOOOOOOOOOOOOOOOOOOOOooooooXXXX  ooooooOOOOOOOOOOOOOOOOOOOOOOOO",
"OOOOOOOOOOOOOOOOOOOOOOooooooXXXX  ooooooOOOOOOOOOOOOOOOOOOOOOOOO",
"OOOOOOOOOOOOOOOOOOOOOOooooooXXXX  ooooooOOOOOOOOOOOOOOOOOOOOOOOO",
"OOOOOOOOOOOOOOOOOOOOOOooooooooooooooooooOOOOOOOOOOOOOOOOOOOOOOOO",
"OOOOOOOOOOOOOOOOOOOOOOooooooooooooooooooOOOOOOOOOOOOOOOOOOOOOOOO",
"OOOOOOOOOOOOOOOOOOOOOOOOOOOOooooooOOOOOOOOOOOOOOOOOOOOOOOOOOOOOO",
"OOOOOOOOOOOOOOOOOOOOOOOOOOOOooooooOOOOOOOOOOOOOOOOOOOOOOOOOOOOOO",
"OOOOOOOOOOOOOOOOOOOOOOOOOOOOOOOOOOOOOOOOOOOOOOOOOOOOOOOOOOOOOOOO",
"OOOOOOOOOOOOOOOOOOOOOOOOOOOOOOOOOOOOOOOOOOOOOOOOOOOOOOOOOOOOOOOO",
"OOOOOOOOOOOOOOOOOOOOOOOOOOOOOOOOOOOOOOOOOOOOOOOOOOOOOOOOOOOOOOOO",
"OOOOOOOOOOOOOOOOOOOOOOOOOOOOOOOOOOOOOOOOOOOOOOOOOOOOOOOOOOOOOOOO",
"OOOOOOOOOOOOOOOOOOOOOOOOOOOOOOOOOOOOOOOOOOOOOOOOOOOOOOOOOOOOOOOO",
"OOOOOOOOOOOOOOOOOOOOOOOOOOOOOOOOOOOOOOOOOOOOOOOOOOOOOOOOOOOOOOOO",
"OOOOOOOOOOOOOOOOOOOOOOOOOOOOOOOOOOOOOOOOOOOOOOOOOOOOOOOOOOOOOOOO",
"OOOOOOOOOOOOOOOOOOOOOOOOOOOOOOOOOOOOOOOOOOOOOOOOOOOOOOOOOOOOOOOO",
"OOOOOOOOOOOOOOOOOOOOOOOOOOOOOOOOOOOOOOOOOOOOOOOOOOOOOOOOOOOOOOOO",
"OOOOOOOOOOOOOOOOOOOOOOOOOOOOOOOOOOOOOOOOOOOOOOOOOOOOOOOOOOOOOOOO",
"OOOOOOOOOOOOOOOOOOOOOOOOOOOOOOOOOOOOOOOOOOOOOOOOOOOOOOOOOOOOOOOO",
"OOOOOOOOOOOOOOOOOOOOOOOOOOOOOOOOOOOOOOOOOOOOOOOOOOOOOOOOOOOOOOOO",
"OOOOOOOOOOOOOOOOOOOOOOOOOOOOOOOOOOOOOOOOOOOOOOOOOOOOOOOOOOOOOOOO",
"OOOOOOOOOOOOOOOOOOOOOOOOOOOOOOOOOOOOOOOOOOOOOOOOOOOOOOOOOOOOOOOO"
};
