/* XPM */
static char *result[] = {
/* columns rows colors chars-per-pixel */
"64 64 4 1 ",
"  c black",
". c gray62",
"X c white",
"o c None",
/* pixels */
"oooooooooooooooooooooooooooooooooooooooooooooooooooooooooooooooo",
"oooooooooooooooooooooooooooooooooooooooooooooooooooooooooooooooo",
"oooooooooooooooooooooooooooooooooooooooooooooooooooooooooooooooo",
"oooooooooooooooooooooooooooooooooooooooooooooooooooooooooooooooo",
"oooooooooooooooooooooooooooooooooooooooooooooooooooooooooooooooo",
"oooooooooooooooooooooooooooooooooooooooooooooooooooooooooooooooo",
"oooooooo                                                oooooooo",
"oooooooo                                                oooooooo",
"oooo    ....XXXXXXXXXXXXXXXXXoXXXXXXXXXXXXXXXXXXXXXX....    oooo",
"oooo    ....XXXXXXXXXXXXXXXXXXXXXXXXXXXXXXXXXXXXXXXX....    oooo",
"oooo    ....XXXXXXXXXXXXXXXXXXXXXXXXXXXXXXXXXXXXXXXX....    oooo",
"oooo    ....XXXXXXXXXXXXXXXXXXXXXXXXXXXXXXXXXXXXXXXX....    oooo",
"    ....XXXXXXXXXXXXXXXXXXXXXXXXXXXXXXXXXXXXXXXXXXXXXXXX....    ",
"    ....XXXXXXXXXXXXXXXXXXXXXXXXXXXXXXXXXXXXXXXXXXXXXXXX....    ",
"    ....XXXXXXXXXXXXXXXXXXXXXXXXXXXXXXXXXXXXXXXXXXXXXXXX....    ",
"    ....XXXXXXXXXXXXXXXXXXXXXXXXXXXXXXXXXXXXXXXXXXXXXXXX....    ",
"    XXXXXXXXXXXXXXXXXXXXXXXXXXXXXXXXXXXXXXXXXXXXXXXXXXXXXXXX    ",
"    XXXXXXXXXXXXXXXXXXXXXXXXXXXXXXXXXXXXXXXXXXXXXXXXXXXXXXXX    ",
"    XXXXXXXXXXXXXXXXXXXXXXXXXXXXXXXXXXXXXXXXXXXXXXXXXXXXXXXX    ",
"    XXXXXXXXXXXXXXXXXXXXXXXXXXXXXXXXXXXXXXXXXXXXXXXXXXXXXXXX    ",
"    XXXX....................XXXXXXXX....................XXXX    ",
"    XXXX....................XXXXXXXX....................XXXX    ",
"    XXXX....................XXXXXXXX....................XXXX    ",
"    XXXX....................XXXXXXXX....................XXXX    ",
"    ....                XXXXXXXXXXXXXXXX                ....    ",
"    ....                XXXXXXXXXXXXXXXX                ....    ",
"    ....                XXXXXXXXXXXXXXXX                ....    ",
"    ....                XXXXXXXXXXXXXXXX                ....    ",
"    ....                ....XXXXXXXX....                ....    ",
"    ....                ....XXXXXXXX....                ....    ",
"    ....                ....XXXXXXXX....                ....    ",
"    ....                ....XXXXXXXX....                ....    ",
"    ....                ....XXXXXXXX....                ....    ",
"    ....                ....XXXXXXXX....                ....    ",
"    ....                ....XXXXXXXX....                ....    ",
"    ....                ....XXXXXXXX....                ....    ",
"    XXXXXXXo            ....XXXXXXXX....            XXXXXXXX    ",
"    XXXXXXXX            ....XXXXXXXX....            XXXXXXXX    ",
"    XXXXXXXX            ....XXXXXXXX....            XXXXXXXX    ",
"    XXXXXXXX            ....XXXXXXXX....            XXXXXXXX    ",
"    XXXXXXXXXXXXXXXX....XXXXXXXXXXXXXXXX....XXXXXXXXXXXXXXXo    ",
"    XXXXXXXXXXXXXXXX....XXXXXXXXXXXXXXXX....XXXXXXXXXXXXXXXX    ",
"    XXXXXXXXXXXXXXXX....XXXXXXXXXXXXXXXX....XXXXXXXXXXXXXXXX    ",
"    XXXXXXXXXXXXXXXX....XXXXXXXXXXXXXXXX....XXXXXXXXXXXXXXXX    ",
"    ........XXXXXXXXXXXXXXXXXXXXXXXXXXXXXXXXXXXXXXXXX.......    ",
"    ........XXXXXXXXXXXXXXXXXXXXXXXXXXXXXXXXXXXXXXXXX.......    ",
"    ........XXXXXXXXXXXXXXXXXXXXXXXXXXXXXXXXXXXXXXXXX.......    ",
"    ........XXXXXXXXXXXXXXXXXXXXXXXXXXXXXXXXXXXXXXXXX.......    ",
"            ....XXXXXXXXXXXXXXXXXXXXXXXXXXXXXXXX....            ",
"            ....XXXXXXXXXXXXXXXXXXXXXXXXXXXXXXXX....            ",
"            ....XXXXXX    XXXX    XXXX    XXXXXX....            ",
"            ....XXXXXX    XXXX    XXXX    XXXXXX....            ",
"oooo            ....XX    XXXX    XXXX    XX....            oooo",
"oooo            ....XX    XXXX    XXXX    XX....            oooo",
"oooo            ....XX    XXXX    XXXX    XX....            oooo",
"oooo            ....XX    XXXX    XXXX    XX....            oooo",
"oooooooo            XX    XXXX    XXXX    XX            oooooooo",
"oooooooo            XX    XXXX    XXXX    XX            oooooooo",
"oooooooo            XX    XXXX    XXXX    XX            oooooooo",
"oooooooo            XX    XXXX    XXXX    XX            oooooooo",
"oooooooo                                                oooooooo",
"oooooooo                                                oooooooo",
"oooooooo                                                oooooooo",
"oooooooo                                                oooooooo"
};
